<svg class="text-white lg:hidden transition w-16 h-16 fill-current" version="1.0" xmlns="http://www.w3.org/2000/svg" width="121.3" height="61.3" viewBox="0 0 91 46">
  <path d="M75.6 9.1C70.7 11.7 57.2 13 56 11c-1.3-2-4.2-.3-3.8 2.2.3 2.2.8 2.3 8.1 2.3 4.2-.1 7.7.1 7.7.2 0 1.4-12.5 18.5-13.8 19-4.1 1.6-5.9 8.3-2.3 8.3 2.8 0 4.3-1.8 13.7-16.2a73 73 0 0 1 10.1-13.4c7.4-2.4 9.4-4.4 5.7-5.8-2-.8-1.3-.9-5.8 1.5zm-48 .3c-5.4 2-9 4.9-9.4 7.5-.3 1.7.2 2.1 2.2 2.1 1.5 0 2.5-.5 2.4-1.2-.4-1.9 7-5.1 12.7-5.5 6-.5 8.5.8 6.9 3.4a27.3 27.3 0 0 1-11.7 7.9l-2.8.6 3.1-4.8c2.7-4.3 2.9-4.9 1.3-5.3-1-.2-2.6.8-3.9 2.4A180 180 0 0 0 14 40.8c0 1.8 3.7 1.5 4.4-.4.5-1.4.8-1.4 2.8 0 4.8 3.4 16.8.6 20.3-4.8 2.4-3.6 1.2-7.4-2.7-9-3-1.3-3-1.4-.9-2.1 1.2-.4 3.8-2 5.7-3.7 4-3.5 4.5-7.5 1.4-10.3-2.7-2.5-12.1-3-17.4-1.1zm10.3 21.1c3 2.9-7.7 8.9-12.5 7.1-.8-.3-1.2-1-.9-1.6.3-.5-.1-1-.9-1-.9 0-1.6-.3-1.6-.8 0-1.8 3.2-5.1 5.3-5.5 3.3-.6 9 .4 10.6 1.8z" fill="#FFF"/>
</svg>
