<svg xmlns="http://www.w3.org/2000/svg" class="text-white hidden lg:inline transition w-28 fill-current" version="1.0" width="236" height="77.3" viewBox="0 0 177 58">
  <path d="M106 8.1c-4.4 2.7-18.7 4-20.1 1.8-.7-1.2-1.1-1.1-2.5.3-1.5 1.5-1.5 1.9-.3 3.4 1.1 1.3 2.7 1.6 8.6 1.2 8.3-.6 8.3-1.6 0 10.7-3 4.4-5.9 7.9-6.5 7.8-1.6-.4-5.5 5.5-4.8 7.2.9 2.3 4 1.8 6.7-1.3 1.4-1.5 5.2-6.9 8.4-12.1 7.1-11.4 10.1-15.1 12.4-15.1.9 0 2.7-.7 3.9-1.6 1.8-1.3 2.1-1.9 1.1-3-1.6-1.9-2.8-1.8-6.9.7zm-86.4.3c-5.4 2-9 4.9-9.4 7.5-.3 1.7.2 2.1 2.2 2.1 1.4 0 2.5-.5 2.4-1.1-.8-3.7 16.3-7.9 19-4.7.9 1.1.8 1.9-.4 3.6-1.6 2.3-10.9 7.5-12.5 7-.5-.2.5-2.3 2.1-4.8 2.5-3.8 2.7-4.6 1.4-4.8-.9-.2-2.5.4-3.5 1.5A166.6 166.6 0 0 0 6 39.6c0 1.9 3.7 1.8 4.4-.2.5-1.4.8-1.4 2.8 0 7 5 23.2-2.6 21.4-9.9-.3-1.3-1.9-2.9-3.5-3.6l-2.9-1.3 4.3-2.7c6.7-4.2 8.3-8.9 4.5-12.4-2.7-2.5-12.1-3-17.4-1.1zm9.8 20.8c1.7.9 1.7 1.2-1.1 4-3.6 3.6-10.9 5.1-11.9 2.4-.3-.9-1.2-1.6-2-1.6-2.4 0 1.8-5.9 4.6-6.3a20 20 0 0 1 10.4 1.5zm139.2-18.5-8 13.9c-6.1 11.1-9.4 13.8-15.9 13.2-4.9-.5-4.9-3.9.1-8.8 4.4-4.4 6.7-5.2 5.7-1.9-.5 1.6-.3 2 1 1.7 4.5-.8 4.4-6.8 0-6.8-5.2 0-13.5 6.7-13.5 10.9 0 2-3 5.1-4.8 5.1-1.8 0-1.5-1.9 1.3-7.8 1.4-3 2.5-5.7 2.5-6.1 0-1.6-8.7-1-11.7.8-4.9 3-8.5 8.4-8.1 12.2.5 5 2.9 5.8 7.5 2.6 3.6-2.6 3.8-2.6 4.1-.8.4 2.8 3.8 3.6 6.7 1.7 2.2-1.4 2.6-1.4 5.3.1 2.6 1.5 3.3 1.5 7.5.1 2.6-.8 4.7-1.1 4.7-.7 0 2.1 3.1.6 4.5-2.1l1.6-3.1 3.3 3.6c1.8 1.9 4 3.5 4.9 3.5 2.1 0 7.7-4.8 7.7-6.6 0-2-1.4-1.7-3.5.6-2.4 2.6-4.7 2.5-6.4-.2-1.2-2-1.1-2.3 1.5-4.2 4-2.9 7.4-6.6 7.4-8.2 0-3-2.2-2.2-6.5 2.2-2.5 2.6-4.8 4.5-5.1 4.2-.3-.4 1.2-3.7 3.4-7.5 7.1-12.1 8.4-15.3 6.7-15.3-.8 0-2.5 1.7-3.9 3.7zM132 26.9c0 1.2-10 11.1-11.1 11.1-1.3 0-1.1-.9 1.2-4.6 3.1-5.1 9.9-9.5 9.9-6.5z" fill="#FFF"/>
  <path d="M51.1 23.2 45 30.7c-4.6 5.7-7 7.6-7 5.5 0-.4 1.4-3.3 3.1-6.5 1.7-3.2 2.8-6.1 2.5-6.4-1.3-1.3-3.4.9-6.5 6.6-5.4 10.1-2.9 15.4 4.3 9.1l3.6-3.2v2.5c0 2.7 3 4.5 5.2 3.1.7-.4 2.7-.7 4.6-.6 2.1.2 4.5-.5 6.5-2 2.8-2 3-2 1.8-.3-.8 1.1-3.4 4-5.8 6.5-5 5.3-6 9.3-2.5 9.8 1.2.2 2.2-.1 2.2-.6 0-1.9 9-11 14-14.2 2.7-1.8 5-3.8 5-4.6 0-2-1.2-1.7-5.5 1.1-2 1.5-3.9 2.4-4.1 2.2-.2-.1 1.9-3.8 4.6-8.1 2.8-4.2 5-7.9 5-8.1 0-.2-1.9-.4-4.2-.3-7.1.1-14.1 4.9-19.1 13C51 37.9 48 39 48 37c0-.6 1.4-3.7 3-7 1.7-3.3 3-6.4 3-7 0-1.4-1.7-1.3-2.9.2zm12.6 8.5c-3.7 3.6-7.1 6.3-7.4 5.9-1.2-1.1 5.1-8.8 8.7-10.7 6-3.3 5.7-2.1-1.3 4.8zm44.1-8a70.2 70.2 0 0 0-9.2 16.5c.7 1.1 3.4 1 3.4 0C102 39 113 27 114 27c.4 0 .6.9.3 2-.8 3.2 2.4 2.4 4.2-1 3.1-6 .4-8.1-5-3.8l-2.7 2.1.6-2.1c.9-2.7-1.4-3-3.6-.5z" fill="#FFF"/>
</svg>
