<svg className="h-24" viewBox="0 0 78.02 54.8">
  <path strokeWidth="6" strokeLinecap="round" fill="none" stroke="#732e54" strokeMiterlimit="10" d="M61.33 25.62l10.14-10.14"/>
  <path fill="#732e54" d="M78.02 8.93l-1.95 7.27-1.95 7.27-5.32-5.32-5.33-5.33 7.28-1.94 7.27-1.95z"/>
  <path d="M53.75 11.86L33.68 24.91a2.64 2.64 0 11-2.88-4.43l20.07-13a2.64 2.64 0 012.88 4.43z" opacity=".8" fill="#389bf3"/>
  <path d="M26.93 29.3L13.51 38a2.64 2.64 0 11-2.88-4.43l13.42-8.72a2.64 2.64 0 012.88 4.43z" fill="#ff9d23" opacity=".8"/>
  <path d="M44.32 8.79L24.26 21.84a2.64 2.64 0 11-2.88-4.43l20.06-13a2.64 2.64 0 112.88 4.43z" fill="#aa7dff"/>
  <path d="M17.5 26.23L4.08 35a2.64 2.64 0 01-2.88-4.48l13.42-8.72a2.64 2.64 0 112.88 4.43z" fill="#389bf3"/>
  <path d="M50.38 4.86l-.13.08A2.64 2.64 0 0147.37.51l.13-.08a2.64 2.64 0 012.88 4.43z" fill="#ff9d23"/>
  <path d="M52.73 21.72L32.66 34.77a2.65 2.65 0 01-2.88-4.44l20.07-13a2.64 2.64 0 012.88 4.43z" opacity=".5" fill="#389bf3"/>
  <path d="M25.91 39.16l-13.42 8.72a2.64 2.64 0 11-2.88-4.43L23 34.72a2.65 2.65 0 012.88 4.44z" opacity=".5" fill="#aa7dff"/>
  <path d="M58.78 17.79l-.12.08a2.65 2.65 0 01-2.88-4.44l.12-.08a2.65 2.65 0 112.88 4.44z" opacity=".5" fill="#ff9d23"/>
  <path d="M73.64 36.73a17.06 17.06 0 00-17.06-17.06 17.37 17.37 0 00-5.28.83 14 14 0 00-26.74 5.66 13.27 13.27 0 00.16 2A12.85 12.85 0 0026 53.8h30.83a17.05 17.05 0 0016.81-17.07z" fill="#fff"/>
  <path d="M73.49 37.46a17.06 17.06 0 01-16.8 17.06H25.85a12.82 12.82 0 01-10.64-5.65 12.78 12.78 0 007.21 2.22h30.83a17.06 17.06 0 0013.42-27.27 17 17 0 016.82 13.64z" fill="#cec1bc"/>
  <path d="M73.64 36.73a17.06 17.06 0 00-17.06-17.06 17.37 17.37 0 00-5.28.83 14 14 0 00-26.74 5.66 13.27 13.27 0 00.16 2A12.85 12.85 0 0026 53.8h30.83a17.05 17.05 0 0016.81-17.07z" strokeWidth="2" fill="none" stroke="#732e54" strokeMiterlimit="10"/>
  <path className="cls-14" d="M25.41 28.12a12.28 12.28 0 0110.18 5.41M55.84 19.7a12.24 12.24 0 00-9.86 5"/>
</svg>
