<svg xmlns="http://www.w3.org/2000/svg" class="h-24" viewBox="0 0 74 67.4" width="105" height="96">
  <defs>
    <linearGradient id="lukaszadam_gradient" x1="193.8" y1="1.3" x2="200.2" y2="1.3" gradientTransform="rotate(-149.2 121.3 39)" gradientUnits="userSpaceOnUse">
      <stop offset="0" stop-color="#f27b40"/>
      <stop offset="1" stop-color="#ec697d"/>
    </linearGradient>
    <style>
      .cls-9{fill:#fff}.cls-13{fill:none;stroke:#732e54;stroke-miterlimit:10;stroke-width:2px}
    </style>
  </defs>
  <g id="Layer_2" data-name="Layer 2">
    <g id="Layer_1-2" data-name="Layer 1">
      <path d="m67.7 23.3-20 13a2.6 2.6 0 0 1-3-4.4l20.1-13a2.6 2.6 0 1 1 3 4.4z" opacity=".8" fill="#389BF3"/>
      <path d="m40.9 40.7-13.4 8.7a2.6 2.6 0 0 1-3-4.4L38 36.3a2.6 2.6 0 1 1 2.9 4.4z" fill="#FF9D23" opacity=".8"/>
      <path d="m58.3 20.2-20 13a2.6 2.6 0 1 1-3-4.4l20.1-13a2.6 2.6 0 0 1 2.9 4.4z" fill="#AA7DFF"/>
      <path d="M31.5 37.6 18 46.5a2.6 2.6 0 1 1-2.8-4.5l13.4-8.7a2.6 2.6 0 0 1 2.9 4.4z" fill="#389BF3"/>
      <path d="M64.3 16.3a2.6 2.6 0 1 1-3-4.4h.2a2.6 2.6 0 1 1 2.8 4.4z" fill="#FF9D23"/>
      <path d="m66.7 33.1-20 13a2.6 2.6 0 0 1-3-4.4l20.1-13a2.6 2.6 0 1 1 2.9 4.4z" opacity=".5" fill="#389BF3"/>
      <path d="m39.9 50.6-13.4 8.7a2.6 2.6 0 1 1-3-4.4L37 46a2.6 2.6 0 1 1 2.9 4.5z" opacity=".5" fill="#AA7DFF"/>
      <path d="M72.7 29.2a2.6 2.6 0 0 1-3-4.3l.2-.1a2.6 2.6 0 1 1 2.8 4.4z" opacity=".5" fill="#FF9D23"/>
      <path class="cls-9" d="M1.5.8h46.4v65.4H1.5z" fill="#FFF"/>
      <path fill="none" stroke="#732E54" stroke-miterlimit="10" d="M42.2 61.2V48"/>
      <path fill="none" stroke="#732E54" stroke-miterlimit="10" opacity=".5" d="M42.2 46v-4.2"/>
      <path opacity=".2" fill="none" stroke="#732E54" stroke-miterlimit="10" d="M42.2 39.9v-3.3"/>
      <rect class="cls-13" x="1" y="1" width="46.4" height="65.4" rx="3" stroke="#732E54" fill="none" stroke-width="2"/>
      <path d="M13.8 11h22.4m-22.4 5.7h7.4m-7.3 11.1h7.3m-7.3-5.6h20.3M13.6 58.8h21" stroke="#732E54" fill="none" stroke-width="2" style="stroke-linecap:round;fill:none;stroke:#732e54;stroke-miterlimit:10;stroke-width:2px"/>
      <path d="M51.4 8.6a3.2 3.2 0 0 1 1.1 4.4L29.1 52.3l-6 4.5.5-7.8L47 9.7a3.2 3.2 0 0 1 4.4-1.1z" fill="url(&quot;#lukaszadam_gradient&quot;)"/>
      <path class="cls-9" d="m29.5 51.2-6 4.4.5-7.8 5.5 3.4z" fill="#FFF"/>
      <path class="cls-13" d="M51.3 8.5a3.2 3.2 0 0 1 1.1 4.4L29.5 51.3l-6.7 5.4L24 48 46.9 9.6a3.2 3.2 0 0 1 4.4-1z" stroke="#732E54" fill="none" stroke-width="2"/>
    </g>
  </g>
</svg>
