<svg xmlns:xlink="http://www.w3.org/1999/xlink" xmlns="http://www.w3.org/2000/svg" class="h-24" viewBox="0 0 71.3 64.9" width="105" height="96">
  <defs>
    <linearGradient id="lukaszadam_gradient" x1="51.7" y1="34.7" x2="63.3" y2="34.7" gradientUnits="userSpaceOnUse">
      <stop offset="0" stop-color="#f27b40"/>
      <stop offset="1" stop-color="#ec697d"/>
    </linearGradient>
    <linearGradient id="lukaszadam_gradient-2" x1="33.9" y1="43" x2="45.5" y2="43" xlink:href="#lukaszadam_gradient"/>
    <linearGradient id="lukaszadam_gradient-3" x1="15.7" y1="50.5" x2="27.4" y2="50.5" xlink:href="#lukaszadam_gradient"/>
    <style>
      .cls-12,.cls-17{fill:none;strokeMiterlimit:10}.cls-12{stroke:#732e54;stroke-width:2px}.cls-17{stroke-linecap:round}.cls-10{fill:#fff}.cls-15{fill:#cec1bc;fill-rule:evenodd}.cls-17{stroke:#fff}
    </style>
  </defs>
  <g id="Layer_2" data-name="Layer 2">
    <g id="Layer_1-2" data-name="Layer 1">
      <path d="m53.8 11.9-20.1 13a2.6 2.6 0 1 1-2.9-4.4l20-13a2.6 2.6 0 0 1 3 4.4z" opacity=".8" fill="#389BF3"/>
      <path d="M27 29.3 13.4 38a2.6 2.6 0 1 1-2.9-4.4L24 24.8a2.6 2.6 0 0 1 3 4.5z" fill="#FF9D23" opacity=".8"/>
      <path d="m44.3 8.8-20 13a2.6 2.6 0 1 1-3-4.4l20.1-13a2.6 2.6 0 1 1 3 4.4z" fill="#AA7DFF"/>
      <path d="M17.5 26.2 4.1 35a2.6 2.6 0 0 1-2.9-4.5l13.4-8.7a2.6 2.6 0 1 1 2.9 4.4z" fill="#389BF3"/>
      <path d="M50.4 4.9h-.1a2.6 2.6 0 0 1-3-4.4h.2a2.6 2.6 0 0 1 2.9 4.4z" fill="#FF9D23"/>
      <path d="m52.7 21.7-20 13a2.6 2.6 0 0 1-3-4.4l20.1-13a2.6 2.6 0 0 1 3 4.5z" opacity=".5" fill="#389BF3"/>
      <path d="m26 39.2-13.5 8.7a2.6 2.6 0 1 1-2.9-4.5L23 34.8a2.6 2.6 0 0 1 2.9 4.5z" opacity=".5" fill="#AA7DFF"/>
      <path d="M58.8 17.8h-.1a2.6 2.6 0 0 1-3-4.4h.2a2.6 2.6 0 1 1 2.9 4.4z" opacity=".5" fill="#FF9D23"/>
      <path stroke-linecap="round" stroke="#732E54" stroke-width="2" fill="none" stroke-miterlimit="10" d="M17 59.7 55.5 42"/>
      <path class="cls-10" d="M33.9 21.2h11.5v38.3H34z" fill="#FFF"/>
      <path fill="url(&quot;#lukaszadam_gradient&quot;)" d="M51.7 6.3h11.6v56.9H51.7z"/>
      <path class="cls-12" d="M51 7H64v57H51z" stroke="#732E54" fill="none" stroke-width="2"/>
      <path fill="url(&quot;#lukaszadam_gradient-2&quot;)" d="M33.9 23h11.6v40H33.9z"/>
      <path class="cls-12" d="M33.1 22h13v42H33z" stroke="#732E54" fill="none" stroke-width="2"/>
      <path fill="url(&quot;#lukaszadam_gradient-3&quot;)" d="M15.7 37.4h11.7v26.3H15.7z"/>
      <path class="cls-12" d="M15.3 37.6h12.9V64H15.3z" stroke="#732E54" fill="none" stroke-width="2"/>
      <circle class="cls-10" cx="63.4" cy="7.8" r="6.3" fill="#FFF"/>
      <path class="cls-15" d="M69.9 8a6.3 6.3 0 1 1-12.6 0 5.8 5.8 0 0 1 .2-1.6 6.3 6.3 0 0 0 12.2 0 6.7 6.7 0 0 1 .2 1.7z" fill="#CEC1BC"/>
      <circle class="cls-12" cx="64" cy="8.4" r="6.3" stroke="#732E54" fill="none" stroke-width="2"/>
      <circle class="cls-10" cx="16.1" cy="37.2" r="6.3" fill="#FFF"/>
      <path class="cls-15" d="M22.6 37.4a6.3 6.3 0 0 1-12.6 0 5.4 5.4 0 0 1 .2-1.6 6.3 6.3 0 0 0 12.2 0 6.2 6.2 0 0 1 .2 1.6z" fill="#CEC1BC"/>
      <circle class="cls-12" cx="16.7" cy="37.8" r="6.3" stroke="#732E54" fill="none" stroke-width="2"/>
      <path opacity=".3" stroke="#FFF" stroke-linecap="round" fill="none" stroke-miterlimit="10" d="M58.7 60.4h1"/>
      <path class="cls-17" d="M54.4 54.4v6h2.2" stroke="#FFF" fill="none"/>
      <path opacity=".6" stroke="#FFF" stroke-linecap="round" fill="none" stroke-miterlimit="10" d="M54.4 50V51"/>
      <path class="cls-17" d="M54.4 43.6v3.2" stroke="#FFF" fill="none"/>
    </g>
  </g>
</svg>
