<svg xmlns="http://www.w3.org/2000/svg" class="h-24" viewBox="0 0 78.02 54.8" width="137" height="96">
  <g data-name="Layer 2">
    <g data-name="Layer 1">
      <path stroke-width="6" stroke-linecap="round" fill="none" stroke="#732E54" stroke-miterlimit="10" d="m61.33 25.62 10.14-10.14"/>
      <path fill="#732E54" d="m78.02 8.93-1.95 7.27-1.95 7.27-5.32-5.32-5.33-5.33 7.28-1.94 7.27-1.95z"/>
      <path d="M53.75 11.86 33.68 24.91a2.64 2.64 0 1 1-2.88-4.43l20.07-13a2.64 2.64 0 0 1 2.88 4.43z" opacity=".8" fill="#389BF3"/>
      <path d="M26.93 29.3 13.51 38a2.64 2.64 0 1 1-2.88-4.43l13.42-8.72a2.64 2.64 0 0 1 2.88 4.43z" fill="#FF9D23" opacity=".8"/>
      <path d="M44.32 8.79 24.26 21.84a2.64 2.64 0 1 1-2.88-4.43l20.06-13a2.64 2.64 0 1 1 2.88 4.43z" fill="#AA7DFF"/>
      <path d="M17.5 26.23 4.08 35a2.64 2.64 0 0 1-2.88-4.48l13.42-8.72a2.64 2.64 0 1 1 2.88 4.43z" fill="#389BF3"/>
      <path d="m50.38 4.86-.13.08A2.64 2.64 0 0 1 47.37.51l.13-.08a2.64 2.64 0 0 1 2.88 4.43z" fill="#FF9D23"/>
      <path d="M52.73 21.72 32.66 34.77a2.65 2.65 0 0 1-2.88-4.44l20.07-13a2.64 2.64 0 0 1 2.88 4.43z" opacity=".5" fill="#389BF3"/>
      <path d="m25.91 39.16-13.42 8.72a2.64 2.64 0 1 1-2.88-4.43L23 34.72a2.65 2.65 0 0 1 2.88 4.44z" opacity=".5" fill="#AA7DFF"/>
      <path d="m58.78 17.79-.12.08a2.65 2.65 0 0 1-2.88-4.44l.12-.08a2.65 2.65 0 1 1 2.88 4.44z" opacity=".5" fill="#FF9D23"/>
      <path d="M73.64 36.73a17.06 17.06 0 0 0-17.06-17.06 17.37 17.37 0 0 0-5.28.83 14 14 0 0 0-26.74 5.66 13.27 13.27 0 0 0 .16 2A12.85 12.85 0 0 0 26 53.8h30.83a17.05 17.05 0 0 0 16.81-17.07z" fill="#FFF"/>
      <path d="M73.49 37.46a17.06 17.06 0 0 1-16.8 17.06H25.85a12.82 12.82 0 0 1-10.64-5.65 12.78 12.78 0 0 0 7.21 2.22h30.83a17.06 17.06 0 0 0 13.42-27.27 17 17 0 0 1 6.82 13.64z" fill="#CEC1BC"/>
      <path d="M73.64 36.73a17.06 17.06 0 0 0-17.06-17.06 17.37 17.37 0 0 0-5.28.83 14 14 0 0 0-26.74 5.66 13.27 13.27 0 0 0 .16 2A12.85 12.85 0 0 0 26 53.8h30.83a17.05 17.05 0 0 0 16.81-17.07z" stroke-width="2" fill="none" stroke="#732E54" stroke-miterlimit="10"/>
      <path d="M25.41 28.12a12.28 12.28 0 0 1 10.18 5.41M55.84 19.7a12.24 12.24 0 0 0-9.86 5" stroke="#732E54" fill="none" stroke-width="2" style="fill:none;stroke:#732e54;stroke-miterlimit:10;stroke-linecap:round;stroke-width:2px"/>
    </g>
  </g>
</svg>
